<svg role="graphics-document" title="Inotherm-logo-2023" width="226" height="32" viewBox="0 0 226 32" fill="none" xmlns="http://www.w3.org/2000/svg" preserveAspectRatio="xMidYMid meet" style="max-height: 132px;" xmlns:xlink="http://www.w3.org/1999/xlink">
<g clip-path="url(#clip0_1804_55)">
<path d="M196.046 31.9999V1.06006H201.755L211.027 15.6923L220.299 1.06006H226V31.9999H220.65V9.80867L213.77 20.2406H213.762L213.052 21.3251H208.834L208.117 20.2406L201.316 9.89769V31.9999H196.046Z" fill="#6D6E70"></path>
<path d="M136.839 31.9999V1.06006H159.434V5.92399H142.197V16.4207H157.481V21.3251H142.197V27.1359H159.657V31.9999H136.839Z" fill="#6D6E70"></path>
<path d="M106.343 31.9999V1.06006H111.701V16.3479H126.243V1.06006H131.593V31.9999H126.243V21.3899H111.701V31.9999H106.343Z" fill="#6D6E71"></path>
<path d="M86.0357 31.9999V6.10204H76.3247V1.06006H101.097V6.10204H91.3935V31.9999H86.0357Z" fill="#6D6E70"></path>
<path d="M10.5962 31.9999V1.06006H15.5633L31.8918 22.45V1.06006H37.1619V31.9999H32.6732L15.8663 9.98672V31.9999H10.5962Z" fill="#6D6E70"></path>
<path d="M5.35779 1.06006H0V31.9999H5.35779V1.06006Z" fill="#6D6E70"></path>
<path d="M51.0346 23.7774C52.9959 25.8978 55.4675 26.958 58.4574 26.958C61.4472 26.958 63.9108 25.914 65.8403 23.8179C67.7697 21.7299 68.7344 19.1482 68.7344 16.0809V15.9919C68.7344 12.9246 67.7538 10.3349 65.7924 8.21447C63.8311 6.09408 61.3595 5.03389 58.3697 5.03389C55.3798 5.03389 52.9162 6.0779 50.9867 8.174C49.0573 10.262 48.0926 12.8437 48.0926 15.911V16C48.0926 19.0673 49.0732 21.6571 51.0346 23.7774ZM58.3697 32C53.7533 32 49.9503 30.4542 46.9604 27.3627C43.9706 24.2711 42.4717 20.5159 42.4717 16.089V16C42.4717 11.5812 43.9865 7.80981 47.0242 4.68589C50.0539 1.56196 53.865 0 58.4574 0C63.0497 0 66.8767 1.54578 69.8666 4.63733C72.8564 7.72888 74.3553 11.4841 74.3553 15.911V16C74.3553 20.4188 72.8405 24.1902 69.8028 27.3141C66.7731 30.438 62.962 32 58.3697 32Z" fill="#6D6E70"></path>
<path d="M164.896 31.9999V16.4207H179.526C182.38 16.4207 184.692 14.0737 184.692 11.1683C184.692 8.26289 182.38 5.92399 179.526 5.92399H164.896V1.06006H178.482C182.253 1.06006 185.187 2.08788 187.276 4.15161C188.958 5.94827 189.803 8.17387 189.803 10.8284V10.9174C189.803 13.3615 189.149 15.3767 187.842 16.9468C186.534 18.5249 184.78 19.6337 182.572 20.2811L190.8 31.9918H184.445L177.03 21.317H170.245V31.9918H164.888L164.896 31.9999Z" fill="#6D6E70"></path>
<path d="M170.253 5.92432H164.896V16.421H170.253V5.92432Z" fill="#E8692A"></path>
</g>
<defs>
<clipPath id="clip0_1804_55">
<rect width="226" height="32" fill="white"></rect>
</clipPath>
</defs>
</svg>